<mxfile host="app.diagrams.net" agent="Mozilla/5.0 (Windows NT 10.0; Win64; x64) AppleWebKit/537.36 (KHTML, like Gecko) Chrome/136.0.0.0 Safari/537.36" version="26.2.8">
  <diagram name="第 1 页" id="HJdR2ewPqc4SO0az2n2Y">
    <mxGraphModel dx="1032" dy="-3480" grid="0" gridSize="10" guides="1" tooltips="1" connect="1" arrows="1" fold="1" page="1" pageScale="1" pageWidth="1169" pageHeight="827" background="#ffffff" math="0" shadow="1">
      <root>
        <mxCell id="0" />
        <mxCell id="1" parent="0" />
        <mxCell id="s1Kb-AB_weebc0_H0UjK-1" value="" style="rounded=0;whiteSpace=wrap;html=1;" parent="1" vertex="1">
          <mxGeometry x="432" y="4537" width="554" height="388" as="geometry" />
        </mxCell>
        <mxCell id="s1Kb-AB_weebc0_H0UjK-2" value="device" style="text;html=1;align=center;verticalAlign=middle;whiteSpace=wrap;rounded=0;fontSize=19;fontStyle=1" parent="1" vertex="1">
          <mxGeometry x="909" y="4537.25" width="70" height="41.25" as="geometry" />
        </mxCell>
        <mxCell id="s1Kb-AB_weebc0_H0UjK-3" value="" style="rounded=0;whiteSpace=wrap;html=1;" parent="1" vertex="1">
          <mxGeometry x="897" y="4806" width="50" height="10" as="geometry" />
        </mxCell>
        <mxCell id="s1Kb-AB_weebc0_H0UjK-5" value="" style="rounded=0;whiteSpace=wrap;html=1;" parent="1" vertex="1">
          <mxGeometry x="897" y="4816" width="50" height="10" as="geometry" />
        </mxCell>
        <mxCell id="s1Kb-AB_weebc0_H0UjK-6" value="" style="rounded=0;whiteSpace=wrap;html=1;" parent="1" vertex="1">
          <mxGeometry x="897" y="4826" width="50" height="10" as="geometry" />
        </mxCell>
        <mxCell id="s1Kb-AB_weebc0_H0UjK-7" value="" style="rounded=0;whiteSpace=wrap;html=1;" parent="1" vertex="1">
          <mxGeometry x="897" y="4836" width="50" height="10" as="geometry" />
        </mxCell>
        <mxCell id="s1Kb-AB_weebc0_H0UjK-8" value="" style="rounded=0;whiteSpace=wrap;html=1;" parent="1" vertex="1">
          <mxGeometry x="280" y="4578.5" width="130" height="125" as="geometry" />
        </mxCell>
        <mxCell id="s1Kb-AB_weebc0_H0UjK-9" value="device" style="text;html=1;align=center;verticalAlign=middle;whiteSpace=wrap;rounded=0;" parent="1" vertex="1">
          <mxGeometry x="315" y="4578.5" width="60" height="30" as="geometry" />
        </mxCell>
        <mxCell id="s1Kb-AB_weebc0_H0UjK-11" value="" style="endArrow=none;html=1;rounded=0;entryX=1;entryY=0.608;entryDx=0;entryDy=0;entryPerimeter=0;exitX=-0.015;exitY=0.606;exitDx=0;exitDy=0;exitPerimeter=0;" parent="1" target="s1Kb-AB_weebc0_H0UjK-8" edge="1">
          <mxGeometry width="50" height="50" relative="1" as="geometry">
            <mxPoint x="280.00000000000017" y="4654.23" as="sourcePoint" />
            <mxPoint x="399.04" y="4653.495" as="targetPoint" />
          </mxGeometry>
        </mxCell>
        <mxCell id="s1Kb-AB_weebc0_H0UjK-12" value="RxToken" style="text;html=1;align=center;verticalAlign=middle;whiteSpace=wrap;rounded=0;" parent="1" vertex="1">
          <mxGeometry x="315" y="4608.5" width="60" height="30" as="geometry" />
        </mxCell>
        <mxCell id="s1Kb-AB_weebc0_H0UjK-13" value="TxToken" style="text;html=1;align=center;verticalAlign=middle;whiteSpace=wrap;rounded=0;" parent="1" vertex="1">
          <mxGeometry x="315" y="4626" width="60" height="30" as="geometry" />
        </mxCell>
        <mxCell id="s1Kb-AB_weebc0_H0UjK-14" value="" style="endArrow=none;html=1;rounded=0;entryX=1;entryY=0.25;entryDx=0;entryDy=0;" parent="1" target="s1Kb-AB_weebc0_H0UjK-8" edge="1">
          <mxGeometry width="50" height="50" relative="1" as="geometry">
            <mxPoint x="279" y="4609.5" as="sourcePoint" />
            <mxPoint x="410" y="4606.5" as="targetPoint" />
          </mxGeometry>
        </mxCell>
        <mxCell id="s1Kb-AB_weebc0_H0UjK-15" value="fn receive" style="text;html=1;align=center;verticalAlign=middle;whiteSpace=wrap;rounded=0;" parent="1" vertex="1">
          <mxGeometry x="315" y="4653.5" width="60" height="30" as="geometry" />
        </mxCell>
        <mxCell id="s1Kb-AB_weebc0_H0UjK-17" value="fn&amp;nbsp;transmit" style="text;html=1;align=center;verticalAlign=middle;whiteSpace=wrap;rounded=0;" parent="1" vertex="1">
          <mxGeometry x="315" y="4673.5" width="60" height="30" as="geometry" />
        </mxCell>
        <mxCell id="RJD5fGrExh7UZTRIIk4p-1" value="" style="rounded=0;whiteSpace=wrap;html=1;" parent="1" vertex="1">
          <mxGeometry x="280" y="4723.5" width="130" height="140" as="geometry" />
        </mxCell>
        <mxCell id="RJD5fGrExh7UZTRIIk4p-2" value="interface" style="text;html=1;align=center;verticalAlign=middle;whiteSpace=wrap;rounded=0;" parent="1" vertex="1">
          <mxGeometry x="315" y="4723.5" width="60" height="30" as="geometry" />
        </mxCell>
        <mxCell id="RJD5fGrExh7UZTRIIk4p-3" value="" style="endArrow=none;html=1;rounded=0;exitX=-0.015;exitY=0.606;exitDx=0;exitDy=0;exitPerimeter=0;" parent="1" edge="1">
          <mxGeometry width="50" height="50" relative="1" as="geometry">
            <mxPoint x="280.00000000000017" y="4794.23" as="sourcePoint" />
            <mxPoint x="409" y="4793.5" as="targetPoint" />
          </mxGeometry>
        </mxCell>
        <mxCell id="RJD5fGrExh7UZTRIIk4p-6" value="" style="endArrow=none;html=1;rounded=0;" parent="1" edge="1">
          <mxGeometry width="50" height="50" relative="1" as="geometry">
            <mxPoint x="279" y="4753.5" as="sourcePoint" />
            <mxPoint x="410" y="4753.5" as="targetPoint" />
          </mxGeometry>
        </mxCell>
        <mxCell id="RJD5fGrExh7UZTRIIk4p-7" value="fn&amp;nbsp;poll" style="text;html=1;align=center;verticalAlign=middle;whiteSpace=wrap;rounded=0;" parent="1" vertex="1">
          <mxGeometry x="315" y="4793.5" width="60" height="30" as="geometry" />
        </mxCell>
        <mxCell id="RJD5fGrExh7UZTRIIk4p-10" value="fn&amp;nbsp;socket_egress" style="text;html=1;align=center;verticalAlign=middle;whiteSpace=wrap;rounded=0;" parent="1" vertex="1">
          <mxGeometry x="290" y="4813.5" width="110" height="30" as="geometry" />
        </mxCell>
        <mxCell id="RJD5fGrExh7UZTRIIk4p-11" value="fn&amp;nbsp;socket_ingress" style="text;html=1;align=center;verticalAlign=middle;whiteSpace=wrap;rounded=0;" parent="1" vertex="1">
          <mxGeometry x="290" y="4833.5" width="110" height="30" as="geometry" />
        </mxCell>
        <mxCell id="RJD5fGrExh7UZTRIIk4p-13" value="" style="curved=1;endArrow=classic;html=1;rounded=0;exitX=1;exitY=0.5;exitDx=0;exitDy=0;entryX=1;entryY=0.5;entryDx=0;entryDy=0;" parent="1" source="RJD5fGrExh7UZTRIIk4p-7" target="RJD5fGrExh7UZTRIIk4p-10" edge="1">
          <mxGeometry width="50" height="50" relative="1" as="geometry">
            <mxPoint x="520" y="4753.5" as="sourcePoint" />
            <mxPoint x="570" y="4703.5" as="targetPoint" />
            <Array as="points">
              <mxPoint x="420" y="4813.5" />
              <mxPoint x="430" y="4823.5" />
            </Array>
          </mxGeometry>
        </mxCell>
        <mxCell id="RJD5fGrExh7UZTRIIk4p-14" value="" style="curved=1;endArrow=classic;html=1;rounded=0;exitX=1;exitY=0.5;exitDx=0;exitDy=0;entryX=1;entryY=0.5;entryDx=0;entryDy=0;" parent="1" source="RJD5fGrExh7UZTRIIk4p-7" target="RJD5fGrExh7UZTRIIk4p-11" edge="1">
          <mxGeometry width="50" height="50" relative="1" as="geometry">
            <mxPoint x="385" y="4818.5" as="sourcePoint" />
            <mxPoint x="410" y="4838.5" as="targetPoint" />
            <Array as="points">
              <mxPoint x="420" y="4818.5" />
              <mxPoint x="430" y="4833.5" />
              <mxPoint x="420" y="4843.5" />
            </Array>
          </mxGeometry>
        </mxCell>
        <mxCell id="RJD5fGrExh7UZTRIIk4p-15" value="" style="rounded=0;whiteSpace=wrap;html=1;" parent="1" vertex="1">
          <mxGeometry x="131" y="4578.5" width="130" height="125" as="geometry" />
        </mxCell>
        <mxCell id="RJD5fGrExh7UZTRIIk4p-16" value="socket" style="text;html=1;align=center;verticalAlign=middle;whiteSpace=wrap;rounded=0;" parent="1" vertex="1">
          <mxGeometry x="166" y="4578.5" width="60" height="30" as="geometry" />
        </mxCell>
        <mxCell id="RJD5fGrExh7UZTRIIk4p-17" value="" style="endArrow=none;html=1;rounded=0;entryX=1;entryY=0.608;entryDx=0;entryDy=0;entryPerimeter=0;exitX=-0.015;exitY=0.606;exitDx=0;exitDy=0;exitPerimeter=0;" parent="1" target="RJD5fGrExh7UZTRIIk4p-15" edge="1">
          <mxGeometry width="50" height="50" relative="1" as="geometry">
            <mxPoint x="131.00000000000017" y="4654.23" as="sourcePoint" />
            <mxPoint x="250.04000000000002" y="4653.495" as="targetPoint" />
          </mxGeometry>
        </mxCell>
        <mxCell id="RJD5fGrExh7UZTRIIk4p-20" value="" style="endArrow=none;html=1;rounded=0;entryX=1;entryY=0.25;entryDx=0;entryDy=0;" parent="1" target="RJD5fGrExh7UZTRIIk4p-15" edge="1">
          <mxGeometry width="50" height="50" relative="1" as="geometry">
            <mxPoint x="130" y="4609.5" as="sourcePoint" />
            <mxPoint x="261" y="4606.5" as="targetPoint" />
          </mxGeometry>
        </mxCell>
        <mxCell id="RJD5fGrExh7UZTRIIk4p-21" value="fn&amp;nbsp;send" style="text;html=1;align=center;verticalAlign=middle;whiteSpace=wrap;rounded=0;" parent="1" vertex="1">
          <mxGeometry x="166" y="4653.5" width="60" height="30" as="geometry" />
        </mxCell>
        <mxCell id="RJD5fGrExh7UZTRIIk4p-22" value="fn&amp;nbsp;recv" style="text;html=1;align=center;verticalAlign=middle;whiteSpace=wrap;rounded=0;" parent="1" vertex="1">
          <mxGeometry x="166" y="4673.5" width="60" height="30" as="geometry" />
        </mxCell>
        <mxCell id="RJD5fGrExh7UZTRIIk4p-24" value="tx_buffer" style="text;html=1;align=center;verticalAlign=middle;whiteSpace=wrap;rounded=0;" parent="1" vertex="1">
          <mxGeometry x="892" y="4771" width="60" height="30" as="geometry" />
        </mxCell>
        <mxCell id="yhEl9DrkRROdgEzBpdwZ-1" value="rx_buffer" style="text;html=1;align=center;verticalAlign=middle;whiteSpace=wrap;rounded=0;" parent="1" vertex="1">
          <mxGeometry x="166" y="4608.5" width="60" height="30" as="geometry" />
        </mxCell>
        <mxCell id="yhEl9DrkRROdgEzBpdwZ-2" value="tx_buffer" style="text;html=1;align=center;verticalAlign=middle;whiteSpace=wrap;rounded=0;" parent="1" vertex="1">
          <mxGeometry x="166" y="4626" width="60" height="30" as="geometry" />
        </mxCell>
        <mxCell id="yhEl9DrkRROdgEzBpdwZ-9" value="" style="rounded=0;whiteSpace=wrap;html=1;" parent="1" vertex="1">
          <mxGeometry x="441" y="4598.5" width="225" height="152.5" as="geometry" />
        </mxCell>
        <mxCell id="yhEl9DrkRROdgEzBpdwZ-36" value="" style="rounded=0;whiteSpace=wrap;html=1;" parent="1" vertex="1">
          <mxGeometry x="795.45" y="4689.75" width="139.45" height="70" as="geometry" />
        </mxCell>
        <mxCell id="yhEl9DrkRROdgEzBpdwZ-38" value="interface" style="text;html=1;align=center;verticalAlign=middle;whiteSpace=wrap;rounded=0;" parent="1" vertex="1">
          <mxGeometry x="874.9000000000001" y="4689.75" width="60" height="30" as="geometry" />
        </mxCell>
        <mxCell id="yhEl9DrkRROdgEzBpdwZ-40" value="&lt;font face=&quot;Times New Roman&quot;&gt;fn&amp;nbsp;poll&lt;/font&gt;&lt;font face=&quot;Times New Roman&quot;&gt;()&lt;/font&gt;" style="rounded=1;whiteSpace=wrap;html=1;fontSize=14;" parent="1" vertex="1">
          <mxGeometry x="799.9000000000001" y="4719.75" width="95" height="30" as="geometry" />
        </mxCell>
        <mxCell id="pIkxorHV2kGy3J6dkqIR-12" value="" style="rounded=0;whiteSpace=wrap;html=1;" parent="1" vertex="1">
          <mxGeometry x="451" y="4608.5" width="225" height="152.5" as="geometry" />
        </mxCell>
        <mxCell id="pIkxorHV2kGy3J6dkqIR-13" value="" style="rounded=0;whiteSpace=wrap;html=1;" parent="1" vertex="1">
          <mxGeometry x="461" y="4618.5" width="225" height="152.5" as="geometry" />
        </mxCell>
        <mxCell id="pIkxorHV2kGy3J6dkqIR-14" value="" style="rounded=0;whiteSpace=wrap;html=1;" parent="1" vertex="1">
          <mxGeometry x="471" y="4628.5" width="225" height="152.5" as="geometry" />
        </mxCell>
        <mxCell id="pIkxorHV2kGy3J6dkqIR-15" value="" style="rounded=0;whiteSpace=wrap;html=1;" parent="1" vertex="1">
          <mxGeometry x="481" y="4638.5" width="225" height="152.5" as="geometry" />
        </mxCell>
        <mxCell id="pIkxorHV2kGy3J6dkqIR-16" value="" style="rounded=0;whiteSpace=wrap;html=1;" parent="1" vertex="1">
          <mxGeometry x="491" y="4648.5" width="225" height="152.5" as="geometry" />
        </mxCell>
        <mxCell id="pIkxorHV2kGy3J6dkqIR-17" value="" style="rounded=0;whiteSpace=wrap;html=1;" parent="1" vertex="1">
          <mxGeometry x="501" y="4659.75" width="225" height="152.5" as="geometry" />
        </mxCell>
        <mxCell id="yhEl9DrkRROdgEzBpdwZ-18" value="" style="rounded=0;whiteSpace=wrap;html=1;" parent="1" vertex="1">
          <mxGeometry x="660.47" y="4776" width="50.55" height="10" as="geometry" />
        </mxCell>
        <mxCell id="yhEl9DrkRROdgEzBpdwZ-19" value="" style="rounded=0;whiteSpace=wrap;html=1;" parent="1" vertex="1">
          <mxGeometry x="660.47" y="4786" width="50.55" height="10" as="geometry" />
        </mxCell>
        <mxCell id="yhEl9DrkRROdgEzBpdwZ-25" value="" style="rounded=0;whiteSpace=wrap;html=1;" parent="1" vertex="1">
          <mxGeometry x="660.47" y="4796" width="50.55" height="10" as="geometry" />
        </mxCell>
        <mxCell id="yhEl9DrkRROdgEzBpdwZ-26" value="tx_buffer" style="text;html=1;align=center;verticalAlign=middle;whiteSpace=wrap;rounded=0;" parent="1" vertex="1">
          <mxGeometry x="655.47" y="4736" width="60" height="30" as="geometry" />
        </mxCell>
        <mxCell id="yhEl9DrkRROdgEzBpdwZ-27" value="&lt;font face=&quot;Times New Roman&quot;&gt;fn&amp;nbsp;send&lt;/font&gt;&lt;font face=&quot;Times New Roman&quot;&gt;()&lt;/font&gt;" style="rounded=1;whiteSpace=wrap;html=1;fontSize=14;" parent="1" vertex="1">
          <mxGeometry x="553.52" y="4766" width="95" height="30" as="geometry" />
        </mxCell>
        <mxCell id="yhEl9DrkRROdgEzBpdwZ-31" value="data_to_send" style="ellipse;whiteSpace=wrap;html=1;rotation=0;" parent="1" vertex="1">
          <mxGeometry x="643.5799999999999" y="4856" width="113.79" height="60" as="geometry" />
        </mxCell>
        <mxCell id="yhEl9DrkRROdgEzBpdwZ-33" value="" style="curved=1;endArrow=classic;html=1;rounded=0;exitX=0.5;exitY=0;exitDx=0;exitDy=0;entryX=1;entryY=0;entryDx=0;entryDy=0;" parent="1" source="yhEl9DrkRROdgEzBpdwZ-31" target="yhEl9DrkRROdgEzBpdwZ-18" edge="1">
          <mxGeometry width="50" height="50" relative="1" as="geometry">
            <mxPoint x="596.02" y="4766" as="sourcePoint" />
            <mxPoint x="646.02" y="4716" as="targetPoint" />
            <Array as="points">
              <mxPoint x="756.02" y="4836" />
              <mxPoint x="756.02" y="4786" />
            </Array>
          </mxGeometry>
        </mxCell>
        <mxCell id="pIkxorHV2kGy3J6dkqIR-35" value="send" style="edgeLabel;html=1;align=center;verticalAlign=middle;resizable=0;points=[];fontSize=15;" parent="yhEl9DrkRROdgEzBpdwZ-33" vertex="1" connectable="0">
          <mxGeometry x="0.1195" y="2" relative="1" as="geometry">
            <mxPoint as="offset" />
          </mxGeometry>
        </mxCell>
        <mxCell id="yhEl9DrkRROdgEzBpdwZ-34" value="" style="endArrow=none;dashed=1;html=1;dashPattern=1 3;strokeWidth=2;rounded=0;exitX=0.5;exitY=1;exitDx=0;exitDy=0;" parent="1" source="yhEl9DrkRROdgEzBpdwZ-27" edge="1">
          <mxGeometry width="50" height="50" relative="1" as="geometry">
            <mxPoint x="596.02" y="4566" as="sourcePoint" />
            <mxPoint x="746" y="4811" as="targetPoint" />
            <Array as="points">
              <mxPoint x="636" y="4821" />
              <mxPoint x="676" y="4831" />
              <mxPoint x="716" y="4831" />
            </Array>
          </mxGeometry>
        </mxCell>
        <mxCell id="yhEl9DrkRROdgEzBpdwZ-16" value="socket" style="text;html=1;align=center;verticalAlign=middle;whiteSpace=wrap;rounded=0;" parent="1" vertex="1">
          <mxGeometry x="501" y="4659.75" width="60" height="30" as="geometry" />
        </mxCell>
        <mxCell id="pIkxorHV2kGy3J6dkqIR-23" value="" style="rounded=0;whiteSpace=wrap;html=1;" parent="1" vertex="1">
          <mxGeometry x="660.2" y="4706" width="50.55" height="10" as="geometry" />
        </mxCell>
        <mxCell id="pIkxorHV2kGy3J6dkqIR-24" value="" style="rounded=0;whiteSpace=wrap;html=1;" parent="1" vertex="1">
          <mxGeometry x="660.2" y="4716" width="50.55" height="10" as="geometry" />
        </mxCell>
        <mxCell id="pIkxorHV2kGy3J6dkqIR-25" value="" style="rounded=0;whiteSpace=wrap;html=1;" parent="1" vertex="1">
          <mxGeometry x="660.2" y="4726" width="50.55" height="10" as="geometry" />
        </mxCell>
        <mxCell id="pIkxorHV2kGy3J6dkqIR-26" value="" style="rounded=0;whiteSpace=wrap;html=1;" parent="1" vertex="1">
          <mxGeometry x="660.47" y="4766" width="50.55" height="10" as="geometry" />
        </mxCell>
        <mxCell id="pIkxorHV2kGy3J6dkqIR-27" value="" style="rounded=0;whiteSpace=wrap;html=1;" parent="1" vertex="1">
          <mxGeometry x="660.2" y="4696" width="50.55" height="10" as="geometry" />
        </mxCell>
        <mxCell id="pIkxorHV2kGy3J6dkqIR-28" value="rx_buffer" style="text;html=1;align=center;verticalAlign=middle;whiteSpace=wrap;rounded=0;" parent="1" vertex="1">
          <mxGeometry x="655.45" y="4666" width="60" height="30" as="geometry" />
        </mxCell>
        <mxCell id="pIkxorHV2kGy3J6dkqIR-37" value="" style="endArrow=classic;html=1;rounded=0;entryX=0;entryY=0.5;entryDx=0;entryDy=0;" parent="1" target="s1Kb-AB_weebc0_H0UjK-5" edge="1">
          <mxGeometry width="50" height="50" relative="1" as="geometry">
            <mxPoint x="716" y="4776" as="sourcePoint" />
            <mxPoint x="766" y="4726" as="targetPoint" />
            <Array as="points" />
          </mxGeometry>
        </mxCell>
        <mxCell id="pIkxorHV2kGy3J6dkqIR-38" value="poll" style="edgeLabel;html=1;align=center;verticalAlign=middle;resizable=0;points=[];fontSize=18;" parent="pIkxorHV2kGy3J6dkqIR-37" vertex="1" connectable="0">
          <mxGeometry x="-0.0127" y="2" relative="1" as="geometry">
            <mxPoint as="offset" />
          </mxGeometry>
        </mxCell>
        <mxCell id="pIkxorHV2kGy3J6dkqIR-41" value="rx_buffer" style="text;html=1;align=center;verticalAlign=middle;whiteSpace=wrap;rounded=0;" parent="1" vertex="1">
          <mxGeometry x="887" y="4571" width="60" height="30" as="geometry" />
        </mxCell>
        <mxCell id="pIkxorHV2kGy3J6dkqIR-42" value="" style="rounded=0;whiteSpace=wrap;html=1;" parent="1" vertex="1">
          <mxGeometry x="892" y="4601" width="50" height="10" as="geometry" />
        </mxCell>
        <mxCell id="pIkxorHV2kGy3J6dkqIR-43" value="" style="rounded=0;whiteSpace=wrap;html=1;" parent="1" vertex="1">
          <mxGeometry x="892" y="4611" width="50" height="10" as="geometry" />
        </mxCell>
        <mxCell id="pIkxorHV2kGy3J6dkqIR-44" value="" style="rounded=0;whiteSpace=wrap;html=1;" parent="1" vertex="1">
          <mxGeometry x="892" y="4621" width="50" height="10" as="geometry" />
        </mxCell>
        <mxCell id="pIkxorHV2kGy3J6dkqIR-45" value="" style="rounded=0;whiteSpace=wrap;html=1;" parent="1" vertex="1">
          <mxGeometry x="892" y="4631" width="50" height="10" as="geometry" />
        </mxCell>
        <mxCell id="pIkxorHV2kGy3J6dkqIR-46" value="" style="endArrow=none;dashed=1;html=1;dashPattern=1 3;strokeWidth=2;rounded=0;" parent="1" target="yhEl9DrkRROdgEzBpdwZ-40" edge="1">
          <mxGeometry width="50" height="50" relative="1" as="geometry">
            <mxPoint x="836" y="4791" as="sourcePoint" />
            <mxPoint x="886" y="4741" as="targetPoint" />
          </mxGeometry>
        </mxCell>
        <mxCell id="pIkxorHV2kGy3J6dkqIR-47" value="" style="endArrow=classic;html=1;rounded=0;entryX=1;entryY=0;entryDx=0;entryDy=0;exitX=0;exitY=0;exitDx=0;exitDy=0;" parent="1" source="pIkxorHV2kGy3J6dkqIR-43" target="pIkxorHV2kGy3J6dkqIR-23" edge="1">
          <mxGeometry width="50" height="50" relative="1" as="geometry">
            <mxPoint x="796" y="4701" as="sourcePoint" />
            <mxPoint x="846" y="4651" as="targetPoint" />
          </mxGeometry>
        </mxCell>
        <mxCell id="pIkxorHV2kGy3J6dkqIR-48" value="poll" style="edgeLabel;html=1;align=center;verticalAlign=middle;resizable=0;points=[];fontSize=18;" parent="pIkxorHV2kGy3J6dkqIR-47" vertex="1" connectable="0">
          <mxGeometry x="-0.0452" y="-1" relative="1" as="geometry">
            <mxPoint as="offset" />
          </mxGeometry>
        </mxCell>
        <mxCell id="pIkxorHV2kGy3J6dkqIR-49" value="" style="endArrow=none;dashed=1;html=1;dashPattern=1 3;strokeWidth=2;rounded=0;exitX=0.5;exitY=0;exitDx=0;exitDy=0;" parent="1" source="yhEl9DrkRROdgEzBpdwZ-40" edge="1">
          <mxGeometry width="50" height="50" relative="1" as="geometry">
            <mxPoint x="796" y="4701" as="sourcePoint" />
            <mxPoint x="846" y="4661" as="targetPoint" />
          </mxGeometry>
        </mxCell>
        <mxCell id="pIkxorHV2kGy3J6dkqIR-50" value="" style="curved=1;endArrow=classic;html=1;rounded=0;entryX=0.5;entryY=1;entryDx=0;entryDy=0;" parent="1" target="pIkxorHV2kGy3J6dkqIR-51" edge="1">
          <mxGeometry width="50" height="50" relative="1" as="geometry">
            <mxPoint x="711.02" y="4706" as="sourcePoint" />
            <mxPoint x="761" y="4656" as="targetPoint" />
            <Array as="points">
              <mxPoint x="746" y="4681" />
            </Array>
          </mxGeometry>
        </mxCell>
        <mxCell id="pIkxorHV2kGy3J6dkqIR-54" value="recv" style="edgeLabel;html=1;align=center;verticalAlign=middle;resizable=0;points=[];fontSize=15;" parent="pIkxorHV2kGy3J6dkqIR-50" vertex="1" connectable="0">
          <mxGeometry x="0.2952" y="2" relative="1" as="geometry">
            <mxPoint as="offset" />
          </mxGeometry>
        </mxCell>
        <mxCell id="pIkxorHV2kGy3J6dkqIR-51" value="process_result" style="ellipse;whiteSpace=wrap;html=1;" parent="1" vertex="1">
          <mxGeometry x="716" y="4571" width="90" height="55" as="geometry" />
        </mxCell>
        <mxCell id="pIkxorHV2kGy3J6dkqIR-52" value="&lt;font face=&quot;Times New Roman&quot;&gt;fn&amp;nbsp;recv&lt;/font&gt;&lt;font face=&quot;Times New Roman&quot;&gt;()&lt;/font&gt;" style="rounded=1;whiteSpace=wrap;html=1;fontSize=14;" parent="1" vertex="1">
          <mxGeometry x="556" y="4686" width="95" height="30" as="geometry" />
        </mxCell>
        <mxCell id="pIkxorHV2kGy3J6dkqIR-53" value="" style="endArrow=none;dashed=1;html=1;dashPattern=1 3;strokeWidth=2;rounded=0;exitX=0.5;exitY=0;exitDx=0;exitDy=0;" parent="1" source="pIkxorHV2kGy3J6dkqIR-52" edge="1">
          <mxGeometry width="50" height="50" relative="1" as="geometry">
            <mxPoint x="636" y="4621" as="sourcePoint" />
            <mxPoint x="746" y="4661" as="targetPoint" />
            <Array as="points">
              <mxPoint x="636" y="4671" />
              <mxPoint x="676" y="4661" />
              <mxPoint x="716" y="4651" />
              <mxPoint x="736" y="4651" />
            </Array>
          </mxGeometry>
        </mxCell>
      </root>
    </mxGraphModel>
  </diagram>
</mxfile>
